<svg width="240" height="93" viewBox="0 0 240 93" fill="none" xmlns="http://www.w3.org/2000/svg">
<path d="M56.9426 25.9487L43.9507 36.569L56.9426 47.1892V25.9487Z" fill="#F5F5F5"/>
<path d="M0 0.681641V92.318H75.9202V0.681641H0ZM64.53 82.8341H56.9424V56.9948L37.9646 41.4716L18.9868 56.9948V82.8341H11.3903V9.93298L37.9646 31.6655L64.5389 9.93298V82.8341H64.53Z" fill="#F5F5F5"/>
<path d="M18.9778 47.1892L31.9607 36.569L18.9778 25.9487V47.1892Z" fill="#F5F5F5"/>
<path d="M103.356 60.7842L112.655 32.544H120.193L129.607 60.7842H123.58L122.011 55.4078H110.914L109.288 60.7842H103.356ZM112.253 51.0073H120.71L116.558 36.7915L112.253 51.0073ZM154.013 61.2816C151.602 61.2816 149.619 61.0457 148.062 60.5737C146.519 60.1018 145.314 59.4385 144.446 58.5839C143.592 57.7293 142.992 56.728 142.648 55.58C142.316 54.4321 142.15 53.182 142.15 51.83V32.5249H147.833V52.0787C147.833 53.941 148.369 55.1974 149.44 55.8479C150.524 56.4984 152.048 56.8237 154.013 56.8237C156.003 56.8237 157.469 56.492 158.413 55.8288C159.37 55.1655 159.848 53.9155 159.848 52.0787V32.5249H165.531V51.6004C165.531 52.9397 165.371 54.1961 165.052 55.3696C164.734 56.5431 164.16 57.5762 163.33 58.4691C162.514 59.3492 161.353 60.038 159.848 60.5355C158.343 61.0329 156.398 61.2816 154.013 61.2816ZM186.053 52.3274V60.7842H180.37V32.544H186.053V46.2432L197.035 32.544H203.311L193.208 45.1526L204.019 60.7842H197.609L189.171 48.4243L186.053 52.3274ZM215.299 56.5367H220.446V36.7724H215.299V32.544H231.218V36.7724H226.109V56.5367H231.218V60.7842H215.299V56.5367Z" fill="#F5F5F5"/>
</svg>
